<?xml version="1.0" standalone="no"?>
<!DOCTYPE svg PUBLIC "-//W3C//DTD SVG 20010904//EN"
 "http://www.w3.org/TR/2001/REC-SVG-20010904/DTD/svg10.dtd">
<svg version="1.0" xmlns="http://www.w3.org/2000/svg"
 width="1090.000000pt" height="1090.000000pt" viewBox="0 0 1090.000000 1090.000000"
 preserveAspectRatio="xMidYMid meet">
<metadata>
Created by potrace 1.11, written by Peter Selinger 2001-2013
</metadata>
<g transform="translate(0.000000,1090.000000) scale(0.100000,-0.100000)"
fill="#000000" stroke="none">
<path d="M1778 7175 c-2 -1 -34 -6 -73 -10 -38 -4 -72 -8 -75 -10 -3 -2 -23
-6 -45 -9 -22 -4 -80 -18 -130 -32 -352 -103 -638 -293 -880 -585 -54 -66
-153 -226 -200 -324 -218 -453 -224 -968 -15 -1445 80 -183 193 -345 344 -496
99 -98 252 -220 331 -263 22 -12 68 -37 103 -56 214 -116 507 -188 767 -189
161 0 271 13 425 50 525 128 972 512 1173 1009 93 231 127 424 122 685 -4 204
-5 214 -52 410 -47 198 -170 443 -313 621 -250 313 -616 536 -1010 616 -8 1
-37 6 -65 9 -27 4 -54 9 -59 12 -9 5 -342 12 -348 7z"/>
<path d="M4280 6620 c-36 -3 -83 -14 -104 -25 -97 -47 -213 -212 -234 -330
-24 -139 83 -329 222 -394 47 -22 59 -22 311 -23 144 0 268 -4 275 -8 7 -5 15
-33 18 -63 4 -47 1 -56 -14 -64 -11 -5 -192 -9 -417 -9 -387 1 -399 1 -416
-19 -29 -32 -145 -195 -175 -247 -15 -25 -23 -48 -19 -50 16 -8 1199 -1 1233
7 93 21 197 139 235 267 50 169 -39 392 -189 471 -39 20 -55 22 -304 23 -259
2 -264 3 -288 25 -13 12 -24 31 -24 41 0 23 18 60 34 70 6 4 184 7 395 8 l385
0 34 32 c68 66 228 276 217 286 -6 6 -535 6 -541 -1 -3 -3 -12 -3 -20 0 -19 7
-531 9 -614 3z"/>
<path d="M5619 6622 c-36 -3 -37 -5 -54 -65 -10 -34 -89 -307 -176 -607 -88
-300 -159 -549 -159 -555 0 -7 200 -10 587 -10 l586 1 85 89 c85 90 144 170
157 212 l6 22 -436 0 c-240 0 -438 1 -441 3 -2 2 5 31 14 63 l18 60 229 2 229
2 161 161 160 160 -272 0 -271 0 -101 -102 -100 -103 15 50 c31 102 84 284 84
290 0 3 162 5 360 5 313 0 364 2 385 16 40 26 179 205 218 280 l16 30 -37 -4
c-20 -2 -41 -3 -47 -3 -79 4 -957 2 -961 -2 -3 -3 -12 -3 -20 0 -16 6 -180 10
-235 5z"/>
<path d="M7048 6622 c-9 -2 -18 -11 -21 -20 -5 -19 -102 -351 -209 -717 -38
-132 -80 -276 -93 -320 -18 -61 -54 -180 -55 -180 0 0 165 1 367 1 203 1 386
5 408 8 22 4 67 11 101 16 272 43 497 228 689 565 137 240 128 497 -20 602
-61 42 -95 45 -636 47 -283 0 -523 0 -531 -2z m781 -348 c50 -63 1 -226 -102
-344 -71 -82 -202 -163 -321 -199 -70 -22 -176 -28 -176 -11 0 8 153 535 165
568 3 9 54 12 209 12 l205 0 20 -26z"/>
<path d="M8578 6622 c-9 -2 -18 -11 -21 -20 -13 -48 -300 -1031 -325 -1114
-25 -85 -27 -98 -13 -99 9 -1 111 -2 226 -3 l210 -1 26 90 c15 50 73 248 129
440 56 193 124 426 152 518 27 93 48 173 46 179 -3 9 -388 18 -430 10z"/>
<path d="M9714 6619 c-1 -3 -16 -4 -31 -2 -41 6 -106 -62 -244 -258 -189 -265
-257 -362 -462 -651 -108 -152 -201 -287 -206 -300 l-9 -23 497 1 497 0 40 43
c43 49 114 143 133 180 18 32 23 21 56 -113 l28 -111 208 0 c158 0 209 3 209
12 0 12 -75 350 -184 823 -68 300 -113 399 -183 401 -217 3 -346 3 -349 -2z
m171 -657 c30 -140 55 -254 55 -255 0 -1 -102 -2 -227 -2 -204 0 -228 2 -227
17 1 9 68 114 149 234 192 284 188 279 192 268 1 -5 27 -123 58 -262z"/>
<path d="M3801 5052 c-35 -97 -67 -181 -70 -187 -3 -5 -6 -14 -7 -20 -2 -5
-48 -131 -103 -279 -55 -149 -98 -272 -96 -276 2 -3 79 -5 171 -5 138 0 168 3
175 15 5 8 39 96 75 195 37 99 70 184 74 188 4 4 52 -47 106 -114 54 -66 107
-131 118 -143 10 -11 39 -47 64 -78 25 -32 48 -59 51 -59 27 -6 381 -3 381 3
0 7 -92 138 -285 404 l-43 60 71 55 c40 30 167 126 282 214 116 88 216 165
223 172 7 7 18 13 23 13 5 0 9 5 9 10 0 6 -70 10 -191 10 l-191 0 -254 -182
c-140 -101 -268 -192 -286 -202 -31 -20 -32 -20 -24 0 7 17 53 141 121 322
l23 62 -176 0 -177 0 -64 -178z"/>
<path d="M5313 5214 c-102 -31 -223 -110 -285 -186 -18 -23 -38 -46 -44 -52
-21 -22 -82 -143 -94 -185 -21 -79 -27 -187 -15 -255 25 -132 134 -218 305
-241 79 -11 376 -13 435 -3 221 38 434 236 490 456 31 120 24 241 -17 317 -41
77 -141 136 -261 155 -95 15 -460 11 -514 -6z m405 -254 c41 -25 54 -58 53
-137 -1 -101 -55 -179 -177 -253 -52 -31 -65 -34 -143 -37 -101 -2 -138 7
-173 45 -61 64 -75 148 -38 225 25 50 52 82 105 122 71 53 74 54 210 54 113 1
134 -2 163 -19z"/>
<path d="M6305 4858 c-76 -205 -154 -417 -175 -470 -24 -63 -33 -98 -26 -101
18 -7 567 0 611 7 127 22 241 65 328 124 96 67 258 262 321 387 87 173 66 354
-47 406 -39 17 -71 19 -458 19 l-416 0 -138 -372z m719 106 c43 -43 -2 -162
-99 -259 -97 -97 -216 -158 -332 -169 l-52 -6 14 43 c13 40 43 121 100 272 15
39 32 85 38 103 l10 32 153 0 c125 0 155 -3 168 -16z"/>
<path d="M7622 5057 c-35 -94 -67 -181 -72 -192 -17 -39 -210 -566 -210 -573
0 -5 78 -8 173 -8 l172 1 31 80 c17 44 33 87 36 95 4 8 11 29 16 45 6 17 67
182 136 369 69 186 126 342 126 347 0 5 -78 9 -172 9 l-173 0 -63 -173z"/>
<path d="M8180 5168 c-23 -64 -45 -125 -214 -583 -53 -143 -101 -268 -106
-277 -6 -10 -7 -19 -3 -19 30 -5 335 -4 343 1 5 3 48 111 95 240 48 129 90
238 94 242 3 4 27 -104 51 -240 l45 -247 219 0 219 0 77 210 c119 325 158 430
207 560 25 66 49 132 54 148 l8 27 -173 0 -172 0 -82 -222 c-120 -322 -107
-296 -117 -238 -3 19 -17 96 -31 170 -14 74 -27 144 -29 155 -4 33 -16 99 -22
118 -4 15 -23 17 -222 17 l-218 0 -23 -62z"/>
<path d="M9607 5206 c-122 -51 -224 -150 -287 -281 -115 -237 -42 -476 175
-576 103 -47 198 -61 423 -63 l202 -2 19 50 c68 181 153 404 161 421 13 27 40
105 40 116 0 5 -96 9 -213 9 l-213 0 -41 -42 c-51 -54 -155 -189 -149 -195 2
-3 48 -5 100 -6 83 -1 96 -3 90 -16 -3 -9 -10 -31 -16 -48 -5 -18 -12 -34 -16
-34 -32 -7 -103 -6 -128 2 -71 22 -146 125 -146 204 0 74 57 178 117 215 30
19 50 20 278 20 l246 0 63 63 c53 53 101 108 151 175 8 9 -73 12 -394 12 -403
0 -404 -1 -462 -24z"/>
</g>
</svg>
